<svg xmlns="http://www.w3.org/2000/svg" width="70" height="70" viewBox="0 0 70 70">
  <g id="Group_25" data-name="Group 25" transform="translate(0 -0.44)">
    <circle id="Ellipse_1" data-name="Ellipse 1" cx="35" cy="35" r="35" transform="translate(0 0.44)" fill="#4ebc6e"/>
    <path id="Path_8" data-name="Path 8" d="M24.75,4.219C24.75,1.889,26.262,0,28.125,0S31.5,1.889,31.5,4.219s-1.512,4.219-3.375,4.219S24.75,6.549,24.75,4.219Zm9,9.765c1.245,0,2.25,1.336,2.25,2.812,0,1.635-1.005,2.813-2.25,2.813h-4.5a1.724,1.724,0,0,1-1.406-.615l-2.862-2.786-4.24,4.263,3.009,2.5a3.041,3.041,0,0,1,1,2.338v11.25a2.576,2.576,0,0,1-2.25,2.813,2.576,2.576,0,0,1-2.25-2.812V26.815L16,23.449a5.68,5.68,0,0,1-.3-8.051l5.843-5.651a2.865,2.865,0,0,1,4.155.026l4.345,4.21ZM18,33.75C18,39.964,13.971,45,9,45S0,39.964,0,33.75,4.03,22.5,9,22.5,18,27.536,18,33.75ZM9,27.422c-2.8,0-5.062,2.83-5.062,6.328S6.2,40.078,9,40.078s5.063-2.83,5.063-6.328S11.8,27.422,9,27.422ZM45,33.75C45,39.964,40.971,45,36,45s-9-5.036-9-11.25S31.029,22.5,36,22.5,45,27.536,45,33.75Zm-9-6.328c-2.8,0-5.062,2.83-5.062,6.328S33.2,40.078,36,40.078s5.063-2.83,5.063-6.328S38.8,27.422,36,27.422Z" transform="translate(13 11)" fill="#cd3e35"/>
    <circle id="Ellipse_1-2" data-name="Ellipse 1" cx="35" cy="35" r="35" transform="translate(0 0.44)" fill="#4ebc6e"/>
    <path id="Path_8-2" data-name="Path 8" d="M24.75,4.219C24.75,1.889,26.262,0,28.125,0S31.5,1.889,31.5,4.219s-1.512,4.219-3.375,4.219S24.75,6.549,24.75,4.219Zm9,9.765c1.245,0,2.25,1.336,2.25,2.812,0,1.635-1.005,2.813-2.25,2.813h-4.5a1.724,1.724,0,0,1-1.406-.615l-2.862-2.786-4.24,4.263,3.009,2.5a3.041,3.041,0,0,1,1,2.338v11.25a2.576,2.576,0,0,1-2.25,2.813,2.576,2.576,0,0,1-2.25-2.812V26.815L16,23.449a5.68,5.68,0,0,1-.3-8.051l5.843-5.651a2.865,2.865,0,0,1,4.155.026l4.345,4.21ZM18,33.75C18,39.964,13.971,45,9,45S0,39.964,0,33.75,4.03,22.5,9,22.5,18,27.536,18,33.75ZM9,27.422c-2.8,0-5.062,2.83-5.062,6.328S6.2,40.078,9,40.078s5.063-2.83,5.063-6.328S11.8,27.422,9,27.422ZM45,33.75C45,39.964,40.971,45,36,45s-9-5.036-9-11.25S31.029,22.5,36,22.5,45,27.536,45,33.75Zm-9-6.328c-2.8,0-5.062,2.83-5.062,6.328S33.2,40.078,36,40.078s5.063-2.83,5.063-6.328S38.8,27.422,36,27.422Z" transform="translate(13 11)" fill="#cd3e35"/>
    <circle id="Ellipse_1-3" data-name="Ellipse 1" cx="35" cy="35" r="35" transform="translate(0 0.44)" fill="#4ebc6e"/>
    <circle id="Ellipse_5" data-name="Ellipse 5" cx="35" cy="35" r="35" transform="translate(0 0.44)" fill="#4ebc6e"/>
    <path id="Path_8-3" data-name="Path 8" d="M24.75,4.219C24.75,1.889,26.262,0,28.125,0S31.5,1.889,31.5,4.219s-1.512,4.219-3.375,4.219S24.75,6.549,24.75,4.219Zm9,9.765c1.245,0,2.25,1.336,2.25,2.812,0,1.635-1.005,2.813-2.25,2.813h-4.5a1.724,1.724,0,0,1-1.406-.615l-2.862-2.786-4.24,4.263,3.009,2.5a3.041,3.041,0,0,1,1,2.338v11.25a2.576,2.576,0,0,1-2.25,2.813,2.576,2.576,0,0,1-2.25-2.812V26.815L16,23.449a5.68,5.68,0,0,1-.3-8.051l5.843-5.651a2.865,2.865,0,0,1,4.155.026l4.345,4.21ZM18,33.75C18,39.964,13.971,45,9,45S0,39.964,0,33.75,4.03,22.5,9,22.5,18,27.536,18,33.75ZM9,27.422c-2.8,0-5.062,2.83-5.062,6.328S6.2,40.078,9,40.078s5.063-2.83,5.063-6.328S11.8,27.422,9,27.422ZM45,33.75C45,39.964,40.971,45,36,45s-9-5.036-9-11.25S31.029,22.5,36,22.5,45,27.536,45,33.75Zm-9-6.328c-2.8,0-5.062,2.83-5.062,6.328S33.2,40.078,36,40.078s5.063-2.83,5.063-6.328S38.8,27.422,36,27.422Z" transform="translate(13 11)" fill="#cd3e35"/>
  </g>
</svg>
