<svg xmlns="http://www.w3.org/2000/svg" width="129.605" height="69.228" viewBox="0 0 129.605 69.228">
  <g id="Group_11" data-name="Group 11" transform="translate(-149.384 -46)">
    <g id="Group_8" data-name="Group 8" transform="translate(14.711 10)">
      <text id="B" transform="translate(147 78)" fill="#4ebc6e" font-size="35" font-family="Poppins-Bold, Poppins" font-weight="700"><tspan x="0" y="0">B</tspan></text>
      <text id="E" transform="translate(177.989 76)" fill="#cd3e35" font-size="35" font-family="Poppins-Bold, Poppins" font-weight="700"><tspan x="0" y="0">E</tspan></text>
      <text id="R" transform="translate(200.857 81)" fill="#0758a7" font-size="35" font-family="Poppins-Bold, Poppins" font-weight="700"><tspan x="0" y="0">R</tspan></text>
      <text id="G" transform="translate(223.359 73)" fill="#ece93a" font-size="35" font-family="Poppins-Bold, Poppins" font-weight="700"><tspan x="0" y="0">G</tspan></text>
    </g>
    <path id="Path_3" data-name="Path 3" d="M155,97.407c5.721-2.23,10.6-4.057,15-5.644,15.218-5.495,20.335-6.435,20.335-6.435l16.059,10.085,12.618,6.542,7.571-4.549,16.059-10.046,9.912-7.065,10.276,17.111L275.679,80.3h2.294l3.212-7.072-2.294,9.605-5.965-8.3h8.259" transform="translate(-4.713 10.41)" fill="none" stroke="#0582bd" stroke-width="5"/>
  </g>
</svg>


