<svg xmlns="http://www.w3.org/2000/svg" width="70" height="70" viewBox="0 0 70 70">
  <g id="Group_23" data-name="Group 23" transform="translate(0 0.231)">
    <circle id="Ellipse_1" data-name="Ellipse 1" cx="35" cy="35" r="35" transform="translate(0 -0.231)" fill="#0758a7"/>
    <path id="Path_6" data-name="Path 6" d="M3.481,48.554l3.093-10.1C7.758,34.59,10.951,32,14.537,32H30.463c3.586,0,6.776,2.59,7.963,6.458l3.094,10.1A6.5,6.5,0,0,1,45,54.5V73.786A3.03,3.03,0,0,1,42.188,77H39.375a3.03,3.03,0,0,1-2.812-3.214V68.964H8.438v4.821A3.032,3.032,0,0,1,5.625,77H2.813A3.032,3.032,0,0,1,0,73.786V54.5a6.5,6.5,0,0,1,3.481-5.946Zm6.108-.482H35.411l-2.294-7.493a2.866,2.866,0,0,0-2.654-2.15H14.537a2.866,2.866,0,0,0-2.654,2.15ZM8.438,54.5a3.243,3.243,0,0,0,0,6.429,3.243,3.243,0,0,0,0-6.429Zm28.125,6.429a3.243,3.243,0,0,0,0-6.429,3.243,3.243,0,0,0,0,6.429Z" transform="translate(13 -21)" fill="#4ebc6e"/>
  </g>
</svg>
