<svg xmlns="http://www.w3.org/2000/svg" width="30" height="30" viewBox="0 0 30 30">
  <path id="Path_5" data-name="Path 5" d="M25.518,123.493c1.649-1.7,5.231-5.149,4.344-8.889-1.015-4.177-4.661-7.48-6.943-9.86-1.3-1.36-5.739-6.217-7.292-3.254a.9.9,0,0,0-.1.583c-.634,1.991-.254,5.1-.254,7.237v1.166c-4.661-.049-9.733-2.38-14.267-.34a.884.884,0,0,0-.444.729c-.032,0-.063.049-.1.049-.7.631-.412,3.06-.412,4.129a46.637,46.637,0,0,0,.19,5.586c.063.437.254.68.476.729.127.243.254.34.444.34,4.788-.1,9.48-.971,14.267-.534,0,2.331-.063,4.663-.285,6.994a1.691,1.691,0,0,0,.1.729c-.317.583.032,1.8.7,1.652C19.3,129.807,22.759,126.31,25.518,123.493Z" transform="translate(-0.001 -100.548)" fill="#e8e6d9"/>
</svg>
