<svg xmlns="http://www.w3.org/2000/svg" width="70" height="70" viewBox="0 0 70 70">
  <g id="Group_36" data-name="Group 36" transform="translate(-335 -529.769)">
    <circle id="Ellipse_1" data-name="Ellipse 1" cx="35" cy="35" r="35" transform="translate(335 529.769)" fill="#ece93a"/>
    <path id="Path_7" data-name="Path 7" d="M36,4.219c0,2.33-3.024,4.219-6.75,4.219S22.5,6.549,22.5,4.219,25.525,0,29.251,0,36,1.889,36,4.219ZM17.79,17.517c-.127.035-.267.07-.394.105l-1.547.431a8.041,8.041,0,0,0-4.708,3.05l-.212.334C10.006,22.879,7.387,23.582,5.08,23s-3.43-2.215-2.507-3.656l.212-.334c1.742-2.716,5.116-4.9,9.4-6.1l1.547-.431a34.457,34.457,0,0,1,9.287-1.231c6.272,0,11.926,2.356,14.33,5.968l2.039,3.235,3.122.94c2.222.694,3.122,2.382,2.011,3.771s-3.811,1.951-6.033,1.257l-3.755-1.169A5.928,5.928,0,0,1,31.53,23.1l-1.35-2.022-2.714,5.757,6.961,4.755A4.1,4.1,0,0,1,36,33.418L39.236,41.5c.6,1.512-.858,3.041-3.263,3.41s-4.866-.536-5.583-2.039l-2.981-7.752-9.929-6.777C15.4,26.931,14.5,24.953,15.413,23.1ZM9.666,34.982l3.51-5.485a10.875,10.875,0,0,0,.986.756l5.724,3.9-2.039,3.182a4.52,4.52,0,0,1-1.491,1.415L7.683,44.176a6.557,6.557,0,0,1-6.365,0c-1.757-1.1-1.757-2.874,0-3.973Z" transform="translate(348 542.769)" fill="#0758a7"/>
  </g>
</svg>
