<svg id="recent-svgrepo-com" xmlns="http://www.w3.org/2000/svg" width="24" height="24" viewBox="0 0 24 24">
  <rect id="view-box" width="24" height="24" fill="none"/>
  <path id="Shape" d="M9.682,18.75a.75.75,0,0,1,.75-.75,8.25,8.25,0,1,0-6.189-2.8V12.568a.75.75,0,0,1,1.5,0v4.243a.75.75,0,0,1-.751.75H.75a.75.75,0,1,1,0-1.5H3a9.75,9.75,0,1,1,7.433,3.44.75.75,0,0,1-.751-.751Zm2.875-4.814L9.9,11.281a.754.754,0,0,1-.22-.531V5.55a.75.75,0,1,1,1.5,0v4.889l2.436,2.436a.75.75,0,1,1-1.061,1.06Z" transform="translate(1.568 2.25)" fill="#0758a7"/>
</svg>
